<?xml version="1.0" encoding="utf-8"?>
<!-- Generator: Adobe Illustrator 27.1.1, SVG Export Plug-In . SVG Version: 6.00 Build 0)  -->
<svg version="1.1" id="Ebene_1" xmlns="http://www.w3.org/2000/svg" xmlns:xlink="http://www.w3.org/1999/xlink" x="0px" y="0px"
	 viewBox="0 0 512 512" style="enable-background:new 0 0 512 512;" xml:space="preserve">
<style type="text/css">
	.st0{fill:#2F8265;}
</style>
<path class="st0" d="M125.7,160H176c17.7,0,32,14.3,32,32s-14.3,32-32,32H48c-17.7,0-32-14.3-32-32V64c0-17.7,14.3-32,32-32
	s32,14.3,32,32v51.2l17.6-17.6c87.5-87.5,229.3-87.5,316.8,0s87.5,229.3,0,316.8s-229.3,87.5-316.8,0c-12.5-12.5-12.5-32.8,0-45.3
	s32.8-12.5,45.3,0c62.5,62.5,163.8,62.5,226.3,0s62.5-163.8,0-226.3s-163.8-62.5-226.3,0L125.7,160z"/>
</svg>
