<?xml version="1.0" encoding="utf-8"?>
<!-- Generator: Adobe Illustrator 27.1.1, SVG Export Plug-In . SVG Version: 6.00 Build 0)  -->
<svg version="1.1" id="Ebene_1" xmlns="http://www.w3.org/2000/svg" xmlns:xlink="http://www.w3.org/1999/xlink" x="0px" y="0px"
	 viewBox="0 0 512 512" style="enable-background:new 0 0 512 512;" xml:space="preserve">
<style type="text/css">
	.st0{fill:#2F8265;}
</style>
<path class="st0" d="M386.3,160H336c-17.7,0-32,14.3-32,32s14.3,32,32,32h128c17.7,0,32-14.3,32-32V64c0-17.7-14.3-32-32-32
	s-32,14.3-32,32v51.2l-17.6-17.6c-87.5-87.5-229.3-87.5-316.8,0s-87.5,229.3,0,316.8s229.3,87.5,316.8,0c12.5-12.5,12.5-32.8,0-45.3
	s-32.8-12.5-45.3,0c-62.5,62.5-163.8,62.5-226.3,0s-62.5-163.8,0-226.3s163.8-62.5,226.3,0L386.3,160z"/>
</svg>
